Coordinates
version=1
nRows=8
nColumns=46
inDegrees=yes

Units are S.I. units (second, meters, Newtons, ...)
Angles are in degrees.

endheader
time	pelvis_tilt	pelvis_list	pelvis_rotation	pelvis_tx	pelvis_ty	pelvis_tz	bb_angle	bb_tx	bb_ty	bb_tz	hip_flexion_r	hip_adduction_r	hip_rotation_r	knee_angle_r	knee_angle_r_beta	ankle_angle_r	subtalar_angle_r	mtp_angle_r	crank_angle_r	hip_flexion_l	hip_adduction_l	hip_rotation_l	knee_angle_l	knee_angle_l_beta	ankle_angle_l	subtalar_angle_l	mtp_angle_l	crank_angle_l	lumbar_extension	lumbar_bending	lumbar_rotation	arm_flex_r	arm_add_r	arm_rot_r	elbow_flex_r	pro_sup_r	wrist_flex_r	wrist_dev_r	arm_flex_l	arm_add_l	arm_rot_l	elbow_flex_l	pro_sup_l	wrist_flex_l	wrist_dev_l
      0.00500000	    -11.37738582	     -2.20170367	     -1.54559131	      0.06438650	      1.14963045	     -0.23032288	      0.00000000	      0.50000000	      0.00000000	      0.25000000	     82.34991624	      1.50221065	      4.21984348	     91.49025044	      1.59680610	     -0.05482616	     -9.22253065	      0.00000000	      0.00000000	     44.18927159	     -6.58877021	      1.86914968	     65.91182905	      1.15037843	      3.79129543	    -10.14973477	      0.00000000	      0.00000000	    -58.61991497	      1.59059980	      3.42137208	     87.98058057	    -15.06243686	     41.01385042	     46.69716378	     44.03714823	      0.00000000	      0.00000000	     87.60872088	    -13.25335697	     37.78323191	     41.58594957	     44.92199767	      0.00000000	      0.00000000
      0.01000000	    -11.38751537	     -2.20976898	     -1.54277482	      0.06438539	      1.14963600	     -0.23035452	      0.00000000	      0.50000000	      0.00000000	      0.25000000	     82.36150600	      1.49961993	      4.21386993	     91.49675129	      1.59691956	     -0.05972946	     -9.22794345	      0.00000000	      0.00000000	     44.19307382	     -6.59027693	      1.87591731	     65.89452023	      1.15007634	      3.79057490	    -10.14508272	      0.00000000	      0.00000000	    -58.61829217	      1.59490152	      3.41443660	     87.99827932	    -15.11145637	     41.13561713	     46.75338804	     44.05429432	      0.00000000	      0.00000000	     87.61810290	    -13.32863420	     37.90110434	     41.67901948	     44.92173858	      0.00000000	      0.00000000
      0.01500000	    -11.38195153	     -2.24316412	     -1.52763729	      0.06435968	      1.14967062	     -0.23041602	      0.00000000	      0.50000000	      0.00000000	      0.25000000	     82.35054189	      1.48479211	      4.17854103	     91.49473506	      1.59688437	     -0.01180867	     -9.18690011	      0.00000000	      0.00000000	     44.18249005	     -6.60386391	      1.91723253	     65.87245813	      1.14969128	      3.81698396	    -10.14829672	      0.00000000	      0.00000000	    -58.62236728	      1.63606798	      3.42947653	     88.01848399	    -15.05126175	     41.15277654	     46.67460058	     43.84382639	      0.00000000	      0.00000000	     87.58148294	    -13.24263294	     37.67226944	     41.74007843	     44.34603418	      0.00000000	      0.00000000
      0.02000000	    -11.20791803	     -2.24450394	     -1.46289246	      0.06447102	      1.14976699	     -0.23027771	      0.00000000	      0.50000000	      0.00000000	      0.25000000	     82.23790035	      1.37514844	      4.20004520	     91.55299816	      1.59790126	     -0.12127014	     -9.05433417	      0.00000000	      0.00000000	     43.99864422	     -6.58658910	      1.93378814	     65.86758666	      1.14960626	      3.80311202	    -10.16174725	      0.00000000	      0.00000000	    -58.90162782	      2.00499390	      3.38638211	     88.07356143	    -14.85766631	     40.90600537	     47.27917127	     43.91469724	      0.00000000	      0.00000000	     87.39938559	    -13.72092827	     37.19881456	     42.24946431	     44.37215402	      0.00000000	      0.00000000
      0.02500000	    -11.38738260	     -2.88854332	     -1.63238001	      0.06441003	      1.14869498	     -0.22890270	      0.00000000	      0.50000000	      0.00000000	      0.25000000	     82.42901592	      1.96768115	      3.64229252	     91.48709800	      1.59675108	     -0.37450290	     -9.41240085	      0.00000000	      0.00000000	     44.32845744	     -7.08197723	      2.70985265	     66.05870641	      1.15294193	      3.53729744	     -5.59229850	      0.00000000	      0.00000000	    -58.85740800	      2.38540907	      4.27012449	     88.23029816	    -16.32192187	     42.79330147	     48.93846312	     44.35936402	      0.00000000	      0.00000000	     87.46789411	    -13.83184867	     39.16580283	     42.81613069	     44.80929028	      0.00000000	      0.00000000
      0.03000000	    -11.43794378	     -2.36445824	     -1.60378005	      0.06426488	      1.14947699	     -0.23015607	      0.00000000	      0.50000000	      0.00000000	      0.25000000	     82.44566558	      1.60890522	      4.09032484	     91.53595142	      1.59760374	     -0.09590495	     -9.30940116	      0.00000000	      0.00000000	     44.28114267	     -6.78274730	      1.91811036	     65.90447685	      1.15025011	      3.71330118	    -10.20563215	      0.00000000	      0.00000000	    -58.61309640	      1.57212296	      3.72988523	     87.96527533	    -16.02966968	     42.12365490	     47.87403465	     44.09789084	      0.00000000	      0.00000000	     87.70583068	    -13.47563519	     38.70087950	     42.16826581	     44.65949567	      0.00000000	      0.00000000
      0.03500000	    -11.37899981	     -2.35204233	     -1.55200482	      0.06419285	      1.14961391	     -0.23024684	      0.00000000	      0.50000000	      0.00000000	      0.25000000	     82.38905645	      1.54033750	      4.09275547	     91.55494449	      1.59793523	     -0.03584876	     -9.21865088	      0.00000000	      0.00000000	     44.21666777	     -6.72031091	      1.96780430	     65.87838206	      1.14979467	      3.74823647	    -10.15290557	      0.00000000	      0.00000000	    -58.63919011	      1.63995909	      3.54150863	     87.95464642	    -15.33097316	     41.34273288	     47.14427484	     43.87293949	      0.00000000	      0.00000000	     87.63128982	    -13.31533408	     37.86302444	     41.82372172	     44.37280089	      0.00000000	      0.00000000
      0.04000000	    -11.20950909	     -2.27508052	     -1.64370476	      0.06419262	      1.15004256	     -0.23010387	      0.00000000	      0.50000000	      0.00000000	      0.25000000	     82.20981683	      1.64053535	      4.16518806	     91.53084432	      1.59751460	     -0.33299978	     -9.73392710	      0.00000000	      0.00000000	     43.96451872	     -6.72748425	      1.79966919	     65.77657878	      1.14801787	      3.56362352	    -10.39982128	      0.00000000	      0.00000000	    -58.91025839	      1.50119186	      3.49810682	     87.87630297	    -15.09890243	     40.38761665	     47.34309207	     43.81652598	      0.00000000	      0.00000000	     87.45598197	    -13.23157159	     36.71540450	     42.46929138	     44.21191127	      0.00000000	      0.00000000
